<?xml version="1.0" encoding="utf-8"?>
<!-- Generator: Adobe Illustrator 27.7.0, SVG Export Plug-In . SVG Version: 6.00 Build 0)  -->
<svg version="1.1" id="Capa_1" focusable="false" xmlns="http://www.w3.org/2000/svg" xmlns:xlink="http://www.w3.org/1999/xlink"
	 x="0px" y="0px" viewBox="0 0 24 24" style="enable-background:new 0 0 24 24;" xml:space="preserve">
<style type="text/css">
	.st0{fill:#202124;}
</style>
<path class="st0" d="M6,8c1.1,0,2-0.9,2-2S7.1,4,6,4S4,4.9,4,6S4.9,8,6,8z M12,20c1.1,0,2-0.9,2-2s-0.9-2-2-2s-2,0.9-2,2
	S10.9,20,12,20z M6,20c1.1,0,2-0.9,2-2s-0.9-2-2-2s-2,0.9-2,2S4.9,20,6,20z M6,14c1.1,0,2-0.9,2-2s-0.9-2-2-2s-2,0.9-2,2
	S4.9,14,6,14z M12,14c1.1,0,2-0.9,2-2s-0.9-2-2-2s-2,0.9-2,2S10.9,14,12,14z M16,6c0,1.1,0.9,2,2,2s2-0.9,2-2s-0.9-2-2-2
	S16,4.9,16,6z M12,8c1.1,0,2-0.9,2-2s-0.9-2-2-2s-2,0.9-2,2S10.9,8,12,8z M18,14c1.1,0,2-0.9,2-2s-0.9-2-2-2s-2,0.9-2,2
	S16.9,14,18,14z M18,20c1.1,0,2-0.9,2-2s-0.9-2-2-2s-2,0.9-2,2S16.9,20,18,20z"/>
</svg>
