<?xml version="1.0" encoding="utf-8"?>
<!-- Generator: Adobe Illustrator 27.7.0, SVG Export Plug-In . SVG Version: 6.00 Build 0)  -->
<svg version="1.1" id="Capa_1" xmlns="http://www.w3.org/2000/svg" xmlns:xlink="http://www.w3.org/1999/xlink" x="0px" y="0px"
	 viewBox="0 0 100 100" style="enable-background:new 0 0 100 100;" xml:space="preserve">
<style type="text/css">
	.st0{fill-rule:evenodd;clip-rule:evenodd;fill:#101010;}
</style>
<path class="st0" d="M50,100c27.6,0,50-22.4,50-50S77.6,0,50,0S0,22.4,0,50S22.4,100,50,100z M27.2,32.2c1.4-1.4,3.3-2.2,5.3-2.2h35
	c2,0,3.9,0.8,5.3,2.2c1.4,1.4,2.2,3.3,2.2,5.3v25c0,2-0.8,3.9-2.2,5.3S69.5,70,67.5,70h-35c-2,0-3.9-0.8-5.3-2.2
	c-1.4-1.4-2.2-3.3-2.2-5.3v-25C25,35.5,25.8,33.6,27.2,32.2z M51.8,49.7L66.5,35H33.5l14.7,14.7c0.2,0.2,0.5,0.4,0.8,0.5
	c0.3,0.1,0.6,0.2,1,0.2s0.7-0.1,1-0.2C51.3,50.1,51.5,49.9,51.8,49.7z M69.3,64.3c0.5-0.5,0.7-1.1,0.7-1.8v-24L55.3,53.2
	c-1.4,1.4-3.3,2.2-5.3,2.2s-3.9-0.8-5.3-2.2L30,38.5v24c0,0.7,0.3,1.3,0.7,1.8c0.5,0.5,1.1,0.7,1.8,0.7h35
	C68.2,65,68.8,64.7,69.3,64.3z"/>
</svg>
